Coordinates
version=1
nRows=19
nColumns=24
inDegrees=yes

Units are S.I. units (second, meters, Newtons, ...)
Angles are in degrees.

endheader
time	pelvis_tilt	pelvis_list	pelvis_rotation	pelvis_tx	pelvis_ty	pelvis_tz	hip_flexion_r	hip_adduction_r	hip_rotation_r	knee_angle_r	ankle_angle_r	subtalar_angle_r	mtp_angle_r	hip_flexion_l	hip_adduction_l	hip_rotation_l	knee_angle_l	ankle_angle_l	subtalar_angle_l	mtp_angle_l	lumbar_extension	lumbar_bending	lumbar_rotation
      3.72500000	    -17.10920764	     -5.54408788	     -1.78694619	     -1.67149588	     -0.01906263	     -0.29818842	     23.81817463	     10.68974153	     -4.97034260	    -21.46243326	      8.23689910	    -13.97122653	     -1.16382721	     34.21093151	     -9.17820244	     -3.93805294	    -60.67787730	     -5.35171286	     -8.30413791	     23.07577548	     23.17592787	      4.85736761	    -12.99074547
      3.73000000	    -17.13104851	     -5.16959051	     -1.96328948	     -1.66527432	     -0.01798969	     -0.29774775	     23.00344495	     10.44039421	     -4.54454557	    -20.79514903	      8.33141464	    -13.83585357	     -1.51883447	     34.79696470	     -8.91015170	     -4.39213110	    -59.84738513	     -4.86066892	     -8.30947535	     22.99184596	     23.14537983	      4.56520194	    -12.58415704
      3.73500000	    -17.17124241	     -4.79458906	     -2.11986193	     -1.65906795	     -0.01699834	     -0.29733848	     22.21903212	     10.16773326	     -4.18814191	    -20.12866453	      8.39797214	    -13.71530450	     -1.79958790	     35.38806015	     -8.64002029	     -4.84429404	    -58.95557170	     -4.41551651	     -8.30835343	     22.87373656	     23.13527793	      4.26439500	    -12.19395584
      3.74000000	    -17.19658616	     -4.43977419	     -2.29814585	     -1.65288937	     -0.01609259	     -0.29691167	     21.41633608	      9.91568236	     -3.79512080	    -19.45218079	      8.48519102	    -13.56738140	     -2.06930085	     35.94401631	     -8.41931402	     -5.33778880	    -58.01787446	     -3.99148862	     -8.33321125	     22.71196465	     23.10264795	      3.99037653	    -11.80310732
      3.74500000	    -17.21684838	     -4.10148578	     -2.47598931	     -1.64673794	     -0.01526909	     -0.29650934	     20.61371677	      9.66736267	     -3.42697217	    -18.77456180	      8.56837671	    -13.40842187	     -2.33014895	     36.47966624	     -8.22796208	     -5.85066200	    -57.03230258	     -3.58848324	     -8.34524841	     22.51540908	     23.06081272	      3.73557873	    -11.41743005
      3.75000000	    -17.23635902	     -3.77889381	     -2.65135487	     -1.64061608	     -0.01453408	     -0.29612658	     19.81644115	      9.42204427	     -3.08439028	    -18.09721559	      8.65103998	    -13.23585047	     -2.57059045	     36.99901023	     -8.06253964	     -6.37668764	    -55.99853259	     -3.20220492	     -8.32983084	     22.29289526	     23.01423603	      3.49452237	    -11.04209595
      3.75500000	    -17.22779662	     -3.48913718	     -2.84177462	     -1.63453089	     -0.01387631	     -0.29573769	     18.98761801	      9.20618541	     -2.72294127	    -17.41162353	      8.75100069	    -13.03184603	     -2.83332780	     37.47271058	     -7.95337841	     -6.93536491	    -54.93014266	     -2.81572719	     -8.29766255	     21.99621356	     22.92869798	      3.29177232	    -10.68203078
      3.76000000	    -17.26795800	     -3.19213546	     -2.99565229	     -1.62846632	     -0.01332541	     -0.29541179	     18.23536950	      8.95593097	     -2.48122846	    -16.75004058	      8.81293317	    -12.84307883	     -2.99934292	     37.98183247	     -7.81813093	     -7.46267794	    -53.79422021	     -2.46424169	     -8.17003173	     21.76196287	     22.89818331	      3.06872644	    -10.32559001
      3.76500000	    -17.29421814	     -2.91959763	     -3.15762569	     -1.62243282	     -0.01286795	     -0.29508926	     17.46776817	      8.72479985	     -2.22789773	    -16.08082188	      8.89248538	    -12.63030858	     -3.11610099	     38.45859101	     -7.72201611	     -8.00979697	    -52.61834705	     -2.11699740	     -8.01646283	     21.52706449	     22.84615774	      2.86899281	     -9.99653250
      3.77000000	    -17.31465145	     -2.66070002	     -3.32276561	     -1.61640371	     -0.01248444	     -0.29480396	     16.70242054	      8.49656780	     -2.00397951	    -15.42184778	      8.96997348	    -12.40819759	     -3.19124309	     38.90308925	     -7.64708450	     -8.57305569	    -51.38864004	     -1.78691019	     -7.79679967	     21.29687711	     22.78752559	      2.69429520	     -9.66297662
      3.77500000	    -17.30527572	     -2.42687457	     -3.49271849	     -1.61041071	     -0.01218143	     -0.29452934	     15.90799613	      8.28588272	     -1.76621053	    -14.76408338	      9.05826765	    -12.15946770	     -3.22932417	     39.30052479	     -7.61225578	     -9.17532911	    -50.12904389	     -1.45236167	     -7.53764670	     21.02355956	     22.68681204	      2.54093081	     -9.35795926
      3.78000000	    -17.35090302	     -2.19608551	     -3.63663874	     -1.60443223	     -0.01199580	     -0.29429698	     15.19407472	      8.06480847	     -1.62168857	    -14.13125055	      9.11732514	    -11.92242145	     -3.22985129	     39.73599213	     -7.55744521	     -9.72233726	    -48.80689969	     -1.15433013	     -7.17240749	     20.83739624	     22.64738730	      2.38242183	     -9.04214942
      3.78500000	    -17.37695572	     -1.97872734	     -3.79170060	     -1.59846356	     -0.01189571	     -0.29407484	     14.46657052	      7.85251544	     -1.46780054	    -13.51178654	      9.19626306	    -11.66288042	     -3.19662944	     40.12696358	     -7.52995621	    -10.30838871	    -47.44593392	     -0.86549969	     -6.77494903	     20.66098701	     22.58164354	      2.24103810	     -8.74751554
      3.79000000	    -17.39749340	     -1.77476346	     -3.94851162	     -1.59250877	     -0.01188117	     -0.29387886	     13.74761174	      7.64650163	     -1.32879979	    -12.91580544	      9.27853979	    -11.39125768	     -3.13832745	     40.49042846	     -7.51827796	    -10.91093038	    -46.04504960	     -0.59400772	     -6.33007865	     20.49521336	     22.50261837	      2.11746433	     -8.46812646
      3.79500000	    -17.40839282	     -1.57931883	     -4.10114341	     -1.58656133	     -0.01195997	     -0.29368970	     13.03225204	      7.44373781	     -1.20012726	    -12.34367989	      9.38450089	    -11.11183570	     -3.05422825	     40.82384592	     -7.51848500	    -11.54409226	    -44.60865302	     -0.34454150	     -5.83814593	     20.33388023	     22.41676832	      1.99625827	     -8.19753838
      3.80000000	    -17.46014727	     -1.38599989	     -4.23256186	     -1.58061929	     -0.01217198	     -0.29356048	     12.37925297	      7.23462440	     -1.11170045	    -11.79990073	      9.49806303	    -10.84744392	     -2.97575537	     41.18564397	     -7.49898721	    -12.14300621	    -43.13517901	     -0.12775660	     -5.28494732	     20.22734693	     22.36780921	      1.87928835	     -7.93140017
      3.80500000	    -17.49682749	     -1.20535442	     -4.37772213	     -1.57469001	     -0.01244922	     -0.29339927	     11.73816665	      7.03946410	     -1.02356902	    -11.30960761	      9.61620467	    -10.56159867	     -2.88749863	     41.50474023	     -7.50247236	    -12.77465919	    -41.62053722	      0.05767436	     -4.71246515	     20.13720170	     22.30414615	      1.76718394	     -7.65185484
      3.81000000	    -17.53634867	     -1.02117842	     -4.52151153	     -1.56876544	     -0.01281764	     -0.29327883	     11.12610305	      6.83459820	     -0.94686966	    -10.86397898	      9.75182102	    -10.27827223	     -2.79496320	     41.80480043	     -7.49837223	    -13.43346125	    -40.07145979	      0.22106404	     -4.11156614	     20.06743442	     22.23954688	      1.66275174	     -7.39592436
      3.81500000	    -17.57622474	     -0.83967730	     -4.66667334	     -1.56284443	     -0.01327687	     -0.29315015	     10.54440991	      6.63194254	     -0.87901532	    -10.47371379	      9.90957770	     -9.99936141	     -2.69967143	     42.08544070	     -7.49746082	    -14.11970946	    -38.49521055	      0.35684450	     -3.48852925	     20.01930661	     22.17454665	      1.55433439	     -7.14395776
